<?xml version="1.0" encoding="UTF-8" standalone="no"?>
<!-- Created with Inkscape (http://www.inkscape.org/) -->

<svg
   xmlns:dc="http://purl.org/dc/elements/1.1/"
   xmlns:cc="http://creativecommons.org/ns#"
   xmlns:rdf="http://www.w3.org/1999/02/22-rdf-syntax-ns#"
   xmlns:svg="http://www.w3.org/2000/svg"
   xmlns="http://www.w3.org/2000/svg"
   xmlns:sodipodi="http://sodipodi.sourceforge.net/DTD/sodipodi-0.dtd"
   xmlns:inkscape="http://www.inkscape.org/namespaces/inkscape"
   width="744.09448819"
   height="1052.3622047"
   id="svg3120"
   version="1.1"
   inkscape:version="0.48.5 r10040"
   sodipodi:docname="a.svg"
   inkscape:export-filename="/home/sveta/Projects/fortnotes/artwork/logo/a.png"
   inkscape:export-xdpi="900"
   inkscape:export-ydpi="900">
  <defs
     id="defs3122" />
  <sodipodi:namedview
     id="base"
     pagecolor="#ffffff"
     bordercolor="#666666"
     borderopacity="1.0"
     inkscape:pageopacity="0.0"
     inkscape:pageshadow="2"
     inkscape:zoom="11.761947"
     inkscape:cx="310.86954"
     inkscape:cy="586.90606"
     inkscape:document-units="px"
     inkscape:current-layer="layer1"
     showgrid="true"
     inkscape:window-width="1227"
     inkscape:window-height="1000"
     inkscape:window-x="53"
     inkscape:window-y="24"
     inkscape:window-maximized="1">
    <inkscape:grid
       type="xygrid"
       id="grid3128" />
  </sodipodi:namedview>
  <metadata
     id="metadata3125">
    <rdf:RDF>
      <cc:Work
         rdf:about="">
        <dc:format>image/svg+xml</dc:format>
        <dc:type
           rdf:resource="http://purl.org/dc/dcmitype/StillImage" />
        <dc:title></dc:title>
      </cc:Work>
    </rdf:RDF>
  </metadata>
  <g
     inkscape:label="Layer 1"
     inkscape:groupmode="layer"
     id="layer1">
    <path
       style="fill:#3b8bba;fill-opacity:1;stroke:none;opacity:1"
       d="M 275 437.375 L 275 449.375 L 325 449.375 L 325 437.375 L 315 437.375 L 315 444.375 L 305 444.375 L 305 437.375 L 295 437.375 L 295 444.375 L 285 444.375 L 285 437.375 L 275 437.375 z M 275 451.375 L 275 487.375 L 325 487.375 L 325 451.375 L 275 451.375 z M 300 456.375 C 305.52285 456.375 310 460.8371 310 466.25 L 300 466.25 L 290 466.25 C 290.06688 460.89053 294.51884 456.375 300 456.375 z M 285.03125 469.375 L 314.96875 469.375 C 314.97997 469.375 315 470.49 315 471.875 C 315 473.26 314.97997 474.375 314.96875 474.375 L 285.03125 474.375 C 285.02003 474.375 285 473.26 285 471.875 C 285 470.49 285.02003 469.375 285.03125 469.375 z M 285 477.375 L 315 477.375 C 315.0085 477.375 315 478.49 315 479.875 C 315 481.26 315.0085 482.375 315 482.375 L 285 482.375 C 284.9915 482.375 285 481.26 285 479.875 C 285 478.49 284.9915 477.375 285 477.375 z "
       id="path4217" />
    <path
       sodipodi:nodetypes="cscccc"
       inkscape:connector-curvature="0"
       id="path4225"
       d="m 305,466.36218 c 0,-2.80273 -2.16881,-5 -5,-5 -2.83119,0 -5,2.19728 -5,5 l 0,0 5,0 z"
       style="fill:#3b8bba;fill-opacity:1;fill-rule:nonzero;stroke:none"
       inkscape:export-filename="/home/sveta/Projects/fort/logo/fort.a.png"
       inkscape:export-xdpi="726.9231"
       inkscape:export-ydpi="726.9231" />
  </g>
</svg>
