<?xml version="1.0" encoding="UTF-8" standalone="no"?>
<!-- Created with Inkscape (http://www.inkscape.org/) -->

<svg
   xmlns:dc="http://purl.org/dc/elements/1.1/"
   xmlns:cc="http://creativecommons.org/ns#"
   xmlns:rdf="http://www.w3.org/1999/02/22-rdf-syntax-ns#"
   xmlns:svg="http://www.w3.org/2000/svg"
   xmlns="http://www.w3.org/2000/svg"
   xmlns:sodipodi="http://sodipodi.sourceforge.net/DTD/sodipodi-0.dtd"
   xmlns:inkscape="http://www.inkscape.org/namespaces/inkscape"
   width="744.09448819"
   height="1052.3622047"
   id="svg2"
   version="1.1"
   inkscape:version="0.48.5 r10040"
   sodipodi:docname="c.svg">
  <defs
     id="defs4" />
  <sodipodi:namedview
     id="base"
     pagecolor="#ffffff"
     bordercolor="#666666"
     borderopacity="1.0"
     inkscape:pageopacity="0.0"
     inkscape:pageshadow="2"
     inkscape:zoom="1.0396191"
     inkscape:cx="238.01194"
     inkscape:cy="627.18904"
     inkscape:document-units="px"
     inkscape:current-layer="layer1"
     showgrid="true"
     showguides="false"
     inkscape:snap-grids="true"
     inkscape:snap-to-guides="false"
     inkscape:snap-page="false"
     inkscape:window-width="1227"
     inkscape:window-height="1000"
     inkscape:window-x="53"
     inkscape:window-y="24"
     inkscape:window-maximized="1">
    <inkscape:grid
       type="xygrid"
       id="grid2985" />
  </sodipodi:namedview>
  <metadata
     id="metadata7">
    <rdf:RDF>
      <cc:Work
         rdf:about="">
        <dc:format>image/svg+xml</dc:format>
        <dc:type
           rdf:resource="http://purl.org/dc/dcmitype/StillImage" />
        <dc:title></dc:title>
      </cc:Work>
    </rdf:RDF>
  </metadata>
  <g
     inkscape:label="Layer 1"
     inkscape:groupmode="layer"
     id="layer1">
    <path
       style="fill:#333381;fill-opacity:1;stroke:none"
       d="m 280,392.36218 150,-40 0,240 -150,-40 z"
       id="rect2987"
       inkscape:connector-curvature="0"
       sodipodi:nodetypes="ccccc" />
    <path
       sodipodi:nodetypes="ccccc"
       inkscape:connector-curvature="0"
       id="path3758"
       d="m 310,376.36218 30,-9 0,36 -30,9 z"
       style="fill:#ffffff;fill-opacity:1;stroke:none" />
    <path
       style="fill:#ffffff;fill-opacity:1;stroke:none"
       d="m 370,361.36218 30,-9 0,36 -30,9 z"
       id="path3760"
       inkscape:connector-curvature="0"
       sodipodi:nodetypes="ccccc" />
    <path
       sodipodi:nodetypes="ccccc"
       inkscape:connector-curvature="0"
       id="path3769"
       d="m 580,392.36218 -150,-40 0,240 150,-40 z"
       style="fill:#333381;fill-opacity:1;stroke:none" />
    <path
       style="fill:#ffffff;fill-opacity:1;stroke:none"
       d="m 550,376.36218 -30,-9 0,36 30,9 z"
       id="path3771"
       inkscape:connector-curvature="0"
       sodipodi:nodetypes="ccccc" />
    <path
       sodipodi:nodetypes="ccccc"
       inkscape:connector-curvature="0"
       id="path3773"
       d="m 490,361.36218 -30,-9 0,36 30,9 z"
       style="fill:#ffffff;fill-opacity:1;stroke:none" />
    <path
       style="fill:#ffffff;fill-opacity:1;fill-rule:nonzero;stroke:none"
       d="m 310,517.36218 90,25 0,15 -90,-25 z"
       id="rect3806"
       inkscape:connector-curvature="0"
       sodipodi:nodetypes="ccccc" />
    <path
       sodipodi:nodetypes="ccccc"
       inkscape:connector-curvature="0"
       id="path3811"
       d="m 310,487.36218 90,25 0,15 -90,-25 z"
       style="fill:#ffffff;fill-opacity:1;fill-rule:nonzero;stroke:none" />
    <path
       style="fill:#ffffff;fill-opacity:1;fill-rule:nonzero;stroke:none"
       d="m 400,497.36218 c 0,0 -20.18216,-5.94675 -45.07804,-13.28249 C 330.02603,476.74397 310,472.36218 310,472.36218 c 5.94993,-17.30098 19.04584,-30 45,-30 25,10e-6 45,30 45,55 z"
       id="path3819"
       inkscape:connector-curvature="0"
       sodipodi:nodetypes="sssss" />
    <path
       sodipodi:nodetypes="sssss"
       inkscape:connector-curvature="0"
       id="path3822"
       d="m 383,493.36218 c 0,0 -12.55779,-3.7843 -28.04856,-8.45249 C 339.46064,480.2415 327,477.45309 327,477.45309 c 3.70218,-11.00971 11.85075,-19.09091 28,-19.09091 15.55555,10e-6 28,19.09091 28,35 z"
       style="fill:#333381;fill-opacity:1;fill-rule:nonzero;stroke:none" />
    <path
       sodipodi:nodetypes="ccccc"
       inkscape:connector-curvature="0"
       id="path3838"
       d="m 550,517.36218 -90,25 0,15 90,-25 z"
       style="fill:#ffffff;fill-opacity:1;fill-rule:nonzero;stroke:none" />
    <path
       style="fill:#ffffff;fill-opacity:1;fill-rule:nonzero;stroke:none"
       d="m 550,487.36218 -90,25 0,15 90,-25 z"
       id="path3840"
       inkscape:connector-curvature="0"
       sodipodi:nodetypes="ccccc" />
    <path
       sodipodi:nodetypes="sssss"
       inkscape:connector-curvature="0"
       id="path3842"
       d="m 460,497.36218 c 0,0 20.18216,-5.94675 45.07804,-13.28249 C 529.97397,476.74397 550,472.36218 550,472.36218 c -5.94993,-17.30098 -19.04584,-30 -45,-30 -25,10e-6 -45,30 -45,55 z"
       style="fill:#ffffff;fill-opacity:1;fill-rule:nonzero;stroke:none" />
    <path
       style="fill:#333381;fill-opacity:1;fill-rule:nonzero;stroke:none"
       d="m 477,493.36218 c 0,0 12.55779,-3.7843 28.04856,-8.45249 15.4908,-4.66819 27.95144,-7.4566 27.95144,-7.4566 -3.70218,-11.00971 -11.85075,-19.09091 -28,-19.09091 -15.55555,10e-6 -28,19.09091 -28,35 z"
       id="path3844"
       inkscape:connector-curvature="0"
       sodipodi:nodetypes="sssss" />
    <path
       style="fill:#333381;fill-opacity:1;fill-rule:nonzero;stroke:none"
       d="m 420,262.36218 20,0 0,85 -10,-3.03572 -10,3.03572 z"
       id="rect3854"
       inkscape:connector-curvature="0"
       sodipodi:nodetypes="cccccc" />
    <path
       style="fill:#333381;fill-opacity:1;fill-rule:nonzero;stroke:none"
       d="m 445,262.36218 c 0,0 16.875,-15 35.73529,-10 18.8603,5 43.67647,25 59.55883,25 23.82353,0 39.70588,-15 39.70588,-15 l 0,85 c 0,0 -15.88235,10 -39.70588,10 -15.88236,0 -40.69853,-16.25 -59.55883,-20 -18.86029,-3.75 -35.73529,10 -35.73529,10 z"
       id="rect3857"
       inkscape:connector-curvature="0"
       sodipodi:nodetypes="cssccsscc" />
  </g>
</svg>
